<?xml version="1.0" encoding="UTF-8" standalone="no"?>
<!-- Created with Inkscape (http://www.inkscape.org/) -->

<svg
   width="93mm"
   height="108mm"
   viewBox="0 0 93 108"
   version="1.1"
   id="svg1"
   xml:space="preserve"
   xmlns="http://www.w3.org/2000/svg"
   xmlns:svg="http://www.w3.org/2000/svg"><defs
     id="defs1" /><g
     id="layer1"><path
       style="fill:#000000;stroke-width:1.28894"
       d="M 34.180006,101.41344 23.477175,95.176816 V 66.497808 37.818801 L 29.728666,34.7816 c 3.43832,-1.67047 6.545593,-3.037214 6.905052,-3.037214 0.359459,0 0.653561,12.33124 0.653561,27.402735 v 27.402748 l 4.500372,2.423612 4.500371,2.4236 15.524279,-9.291694 15.524279,-9.291694 v -5.373152 c 0,-4.391184 -0.630955,-5.660625 -3.452526,-6.946217 -4.573014,-2.083602 -4.343345,-4.0653 0.811153,-6.999025 5.275201,-3.002425 6.826749,-3.010442 12.998753,-0.06715 l 4.927046,2.34955 -0.391909,13.050767 -0.391908,13.050767 -22.786672,12.89349 C 56.517849,101.86414 45.953119,107.6626 45.573342,107.65818 c -0.379778,-0.004 -5.506779,-2.81452 -11.393336,-6.24467 z M 5.8692935,84.71917 0,81.1803 0.00618693,53.355075 0.01237385,25.529838 22.212548,12.755497 C 34.422643,5.7296106 45.13993,-0.01036194 46.028739,1.4045191e-5 46.917547,0.01032559 56.034393,4.9134261 66.288395,10.895643 l 18.64364,10.876771 0.385121,8.09326 0.385122,8.093261 -19.163551,10.702828 C 55.998775,54.548327 46.96974,59.364591 46.474208,59.364591 c -0.495532,0 -0.900968,-3.409705 -0.900968,-7.577115 v -7.577129 l 11.100655,-6.44991 C 62.779254,34.212983 68.078993,30.817907 68.451093,30.215841 69.18842,29.022822 48.714695,16.618833 45.941164,16.578219 45.004189,16.564556 37.391369,20.415106 29.023787,25.135125 L 13.810103,33.716972 V 61.04139 c 0,15.028431 -0.466091,27.300174 -1.035758,27.270528 -0.569666,-0.02965 -3.6769402,-1.646379 -6.9050515,-3.592748 z"
       id="path2" /><path
       style="fill:#5988ff;fill-opacity:1;stroke:#000000;stroke-width:0;stroke-linecap:round;stroke-linejoin:round;stroke-dasharray:none"
       d="M 135.674,386.23537 C 116.13128,375.02602 97.571033,364.38885 94.429001,362.5972 l -5.712787,-3.25754 V 251.4679 143.59613 l 21.170916,-10.2204 c 11.644,-5.62122 22.74836,-10.81416 24.67636,-11.53987 l 3.50544,-1.31947 0.8551,10.98361 c 0.47031,6.04099 0.85873,52.52052 0.86316,103.28785 l 0.008,92.30422 17.65849,9.47319 17.65849,9.47317 58.916,-35.24025 58.916,-35.24024 0.012,-14.11394 c 0.0197,-23.19095 -0.93492,-25.222 -16.62499,-35.37139 -8.5697,-5.54346 -9.93499,-7.78656 -7.50404,-12.32882 2.23026,-4.16728 18.44871,-14.59427 27.49454,-17.6765 9.37471,-3.19428 16.8281,-1.74103 36.36768,7.09091 l 17.13454,7.74486 -0.82172,21.57396 c -0.45195,11.86568 -1.20815,34.00372 -1.68046,49.19564 l -0.85874,27.62169 -60.52005,34.21083 c -61.58875,34.81493 -112.60154,63.05244 -113.97598,63.09001 -0.41844,0.0114 -16.75029,-9.15049 -36.293,-20.35982 z"
       id="path3"
       transform="scale(0.26458333)" /></g></svg>
