<?xml version="1.0" encoding="UTF-8" standalone="no"?>
<!-- Created with Inkscape (http://www.inkscape.org/) -->

<svg
   width="210mm"
   height="108mm"
   viewBox="0 0 210 108"
   version="1.1"
   id="svg1"
   xml:space="preserve"
   inkscape:version="1.3 (0e150ed6c4, 2023-07-21)"
   sodipodi:docname="bs.svg"
   xmlns:inkscape="http://www.inkscape.org/namespaces/inkscape"
   xmlns:sodipodi="http://sodipodi.sourceforge.net/DTD/sodipodi-0.dtd"
   xmlns="http://www.w3.org/2000/svg"
   xmlns:svg="http://www.w3.org/2000/svg"><sodipodi:namedview
     id="namedview1"
     pagecolor="#ffffff"
     bordercolor="#000000"
     borderopacity="0.25"
     inkscape:showpageshadow="2"
     inkscape:pageopacity="0.0"
     inkscape:pagecheckerboard="0"
     inkscape:deskcolor="#d1d1d1"
     inkscape:document-units="mm"
     inkscape:zoom="0.74394518"
     inkscape:cx="512.8066"
     inkscape:cy="705.02507"
     inkscape:window-width="2560"
     inkscape:window-height="1377"
     inkscape:window-x="-8"
     inkscape:window-y="-8"
     inkscape:window-maximized="1"
     inkscape:current-layer="layer1" /><defs
     id="defs1" /><g
     inkscape:label="Ebene 1"
     inkscape:groupmode="layer"
     id="layer1"><path
       style="fill:#000000;stroke-width:1.28894"
       d="M 34.180006,101.41344 23.477175,95.176816 V 66.497808 37.818801 L 29.728666,34.7816 c 3.43832,-1.67047 6.545593,-3.037214 6.905052,-3.037214 0.359459,0 0.653561,12.33124 0.653561,27.402735 v 27.402748 l 4.500372,2.423612 4.500371,2.4236 15.524279,-9.291694 15.524279,-9.291694 v -5.373152 c 0,-4.391184 -0.630955,-5.660625 -3.452526,-6.946217 -4.573014,-2.083602 -4.343345,-4.0653 0.811153,-6.999025 5.275201,-3.002425 6.826749,-3.010442 12.998753,-0.06715 l 4.927046,2.34955 -0.391909,13.050767 -0.391908,13.050767 -22.786672,12.89349 C 56.517849,101.86414 45.953119,107.6626 45.573342,107.65818 c -0.379778,-0.004 -5.506779,-2.81452 -11.393336,-6.24467 z M 5.8692935,84.71917 0,81.1803 0.00618693,53.355075 0.01237385,25.529838 22.212548,12.755497 C 34.422643,5.7296106 45.13993,-0.01036194 46.028739,1.4045191e-5 46.917547,0.01032559 56.034393,4.9134261 66.288395,10.895643 l 18.64364,10.876771 0.385121,8.09326 0.385122,8.093261 -19.163551,10.702828 C 55.998775,54.548327 46.96974,59.364591 46.474208,59.364591 c -0.495532,0 -0.900968,-3.409705 -0.900968,-7.577115 v -7.577129 l 11.100655,-6.44991 C 62.779254,34.212983 68.078993,30.817907 68.451093,30.215841 69.18842,29.022822 48.714695,16.618833 45.941164,16.578219 45.004189,16.564556 37.391369,20.415106 29.023787,25.135125 L 13.810103,33.716972 V 61.04139 c 0,15.028431 -0.466091,27.300174 -1.035758,27.270528 C 12.204679,88.282273 9.0974048,86.665539 5.8692935,84.71917 Z M 103.57578,53.840556 V 20.696301 h 20.50112 c 18.10728,0 20.76799,0.294898 22.78667,2.525517 1.9704,2.177269 2.28555,6.432367 2.28555,30.858687 0,25.69486 -0.23516,28.546015 -2.5255,30.618738 -2.10845,1.908126 -5.87146,2.285554 -22.78668,2.285554 h -20.26116 z m 34.24907,21.819961 c 2.14857,-2.14859 2.14857,-13.871127 0,-16.019718 -0.97773,-0.977728 -5.67749,-1.65722 -11.4624,-1.65722 -5.7849,0 -10.48466,0.679492 -11.46239,1.65722 -2.14858,2.148591 -2.14858,13.871128 0,16.019718 2.19954,2.199543 20.72524,2.199543 22.92479,0 z m 0,-29.001217 c 0.91146,-0.911463 1.6572,-4.205177 1.6572,-7.319353 0,-3.114177 -0.74574,-6.40789 -1.6572,-7.319353 -2.19955,-2.199543 -20.72525,-2.199543 -22.92479,0 -2.14653,2.146528 -2.14653,12.492177 0,14.638706 0.97773,0.977728 5.67749,1.657207 11.46239,1.657207 5.78491,0 10.48467,-0.679479 11.4624,-1.657207 z m 27.80033,38.138225 c -1.3154,-1.584962 -1.41655,-2.820903 -0.36728,-4.48828 1.17835,-1.872525 4.2342,-2.374504 16.41005,-2.695657 8.22914,-0.217058 15.77577,-1.069964 16.7703,-1.895352 2.27452,-1.887682 2.38683,-13.841662 0.15104,-16.077437 -1.08048,-1.080495 -6.7516,-1.65722 -16.29591,-1.65722 -9.54431,0 -15.21544,-0.576711 -16.29593,-1.657207 -2.27931,-2.279315 -2.27931,-31.693548 0,-33.972851 1.13309,-1.133097 7.84952,-1.65722 21.23656,-1.65722 16.17965,0 19.89456,0.3798 21.39464,2.187285 1.31462,1.584021 1.4163,2.821883 0.36868,4.48828 -1.17365,1.866841 -4.54602,2.431295 -17.87305,2.991508 l -16.42646,0.690512 v 8.286061 8.28606 l 15.79755,0.392921 c 8.74283,0.217458 16.606,1.063868 17.60789,1.895365 2.43438,2.020354 2.56831,32.998101 0.1531,35.413297 -1.13308,1.133084 -7.84952,1.657207 -21.23656,1.657207 -16.17963,0 -19.89455,-0.379787 -21.39462,-2.187272 z"
       id="path2" /><path
       style="fill:#5988ff;stroke:#000000;stroke-width:0;stroke-linecap:round;stroke-linejoin:round;stroke-dasharray:none;fill-opacity:1"
       d="M 135.674,386.23537 C 116.13128,375.02602 97.571033,364.38885 94.429001,362.5972 l -5.712787,-3.25754 V 251.4679 143.59613 l 21.170916,-10.2204 c 11.644,-5.62122 22.74836,-10.81416 24.67636,-11.53987 l 3.50544,-1.31947 0.8551,10.98361 c 0.47031,6.04099 0.85873,52.52052 0.86316,103.28785 l 0.008,92.30422 17.65849,9.47319 17.65849,9.47317 58.916,-35.24025 58.916,-35.24024 0.012,-14.11394 c 0.0197,-23.19095 -0.93492,-25.222 -16.62499,-35.37139 -8.5697,-5.54346 -9.93499,-7.78656 -7.50404,-12.32882 2.23026,-4.16728 18.44871,-14.59427 27.49454,-17.6765 9.37471,-3.19428 16.8281,-1.74103 36.36768,7.09091 l 17.13454,7.74486 -0.82172,21.57396 c -0.45195,11.86568 -1.20815,34.00372 -1.68046,49.19564 l -0.85874,27.62169 -60.52005,34.21083 c -61.58875,34.81493 -112.60154,63.05244 -113.97598,63.09001 -0.41844,0.0114 -16.75029,-9.15049 -36.293,-20.35982 z"
       id="path3"
       transform="scale(0.26458333)" /></g></svg>
